<svg width="200" height="221" viewBox="0 0 200 221" fill="none" xmlns="http://www.w3.org/2000/svg">
  <path fill-rule="evenodd" clip-rule="evenodd" d="M0 92.5V185H16.5H33V202.743V220.486L59.462 194.038C74.016 179.492 86.123 167.795 86.367 168.045C86.61 168.295 84.609 172.213 81.92 176.75L77.03 185H138.515H200V92.5V0H100H0V92.5ZM102.359 41.029C120.555 46.649 133.195 62.14 136.74 83.162C138.122 91.361 138.125 93.261 136.763 101.591C133.278 122.919 120.899 138.101 102.072 144.137C92.576 147.181 76.003 147.149 67 144.068C58.609 141.197 52.445 137.222 46.303 130.722C36.234 120.064 31.881 108.529 31.852 92.425C31.821 75.867 37.197 62.778 48.367 52.214C61.889 39.426 83.006 35.051 102.359 41.029ZM169.559 76.25C169.177 96.188 168.64 113.287 168.365 114.25C167.947 115.712 166.659 116 160.531 116H153.196L152.627 110.25C152.313 107.087 151.766 89.988 151.409 72.25L150.761 40H160.507H170.253L169.559 76.25ZM75.5 59.334C62.782 63.563 55.241 72.733 52.961 86.742C50.389 102.54 58.052 118.021 71.5 124.198C78.314 127.328 91.337 127.395 98.089 124.334C111.069 118.452 119.089 101.296 116.059 85.896C113.729 74.049 107.696 65.452 98.638 61.067C92.914 58.296 81.25 57.422 75.5 59.334ZM169.789 136.25L170.078 145H160.539H151V136.667C151 132.083 151.316 128.017 151.703 127.631C152.089 127.244 156.252 127.057 160.953 127.214L169.5 127.5L169.789 136.25Z" fill="#F0047F"></path>
</svg>
